<svg width="310" height="67" viewBox="0 0 310 67" fill="none" xmlns="http://www.w3.org/2000/svg">
<path fill-rule="evenodd" clip-rule="evenodd" d="M196.121 32.2202L200.942 59.7973L201.054 60.5236H201.78H212.282H212.841L213.064 60.0208L221.723 40.5803L223.176 59.7415L223.231 60.5236H224.069H234.516H235.074L235.298 60.0766L256.303 22.3129L256.751 21.4563L256.692 21.8101L249.765 59.5739L249.598 60.5236H250.603H259.262H259.932L260.1 59.8532L267.027 22.0894L267.195 21.1397H266.189H257.53H256.917H256.804H255.576H246.024H245.521L245.242 21.5866L231.946 47.5632L230.605 21.9218L230.549 21.1397H229.712H220.997H220.382L220.215 21.6425L209.433 47.5632L205.613 22.0983C202.599 25.7128 199.43 29.0832 196.121 32.2202ZM269.808 21.1397H269.082L268.915 21.8101L261.988 59.5739L261.82 60.5236H262.826H271.652H272.378L272.49 59.8532L276.959 35.776L289.249 60.0766L289.472 60.5236H290.031H300.31H301.036L301.148 59.8532L308.131 22.0894L308.298 21.1397H307.293H298.466H297.74L297.573 21.8101L293.159 45.8314L280.869 21.5866L280.59 21.1397H280.032H269.808Z" fill="#A8D03E"/>
<path fill-rule="evenodd" clip-rule="evenodd" d="M155.775 60.0631H148.467C150.651 59.3513 152.813 58.5892 154.952 57.7754L155.383 59.0017L155.775 60.0631ZM165.939 59.1134L167.272 52.3682C171.627 50.1837 175.858 47.75 179.945 45.0526L177.056 59.3927L176.944 60.0631H165.771L165.939 59.1134ZM169.928 38.9347C177.333 33.9075 184.095 27.8803 189.934 20.6793H161.916L161.805 21.3497L160.464 29.003L160.296 30.0085H171.693L169.928 38.9347ZM142.203 52.5933C145.456 51.4648 148.662 50.2196 151.807 48.8479L150.188 44.2537C154.881 42.1681 157.693 38.6301 158.624 33.6396C158.773 32.8575 158.847 32.001 158.847 31.0699C158.847 27.8298 157.544 25.2973 154.937 23.4725C152.367 21.6104 148.475 20.6793 143.261 20.6793H128.513L128.401 21.3497L121.592 58.1749L121.727 58.1474C125.447 57.3875 129.15 56.5102 132.814 55.5026L134.602 46.6H140.3L142.203 52.5933ZM88.4629 20.6793H99.3004L99.1328 21.629L95.4458 40.2874C95.2224 41.4047 95.1106 42.4661 95.1106 43.4716C95.1106 45.7062 95.6507 47.4379 96.7307 48.6669C97.8107 49.8587 99.4121 50.4546 101.535 50.4546C104.179 50.4546 106.414 49.5235 108.239 47.6614C110.101 45.762 111.348 43.2109 111.981 40.0081L115.668 21.3497L115.78 20.6793H126.45L126.283 21.629L122.763 40.5667C121.609 46.8979 118.909 51.8512 114.663 55.4264C110.417 59.0017 105.483 60.7893 99.859 60.7893C95.1293 60.7893 91.3678 59.4672 88.5746 56.823C85.7814 54.1416 84.3848 50.3801 84.3848 45.5386C84.3848 43.8999 84.5524 42.1495 84.8876 40.2874L88.3511 21.3497L88.4629 20.6793ZM137.898 30.0085H141.809C144.453 30.0085 146.315 30.2133 147.395 30.623C148.512 31.0327 149.071 31.7217 149.071 32.69C149.071 32.7644 149.034 33.0251 148.959 33.4721C148.661 34.85 147.805 35.8369 146.389 36.4328C145.011 36.9915 142.87 37.2708 139.965 37.2708H136.334L137.898 30.0085Z" fill="white"/>
<path fill-rule="evenodd" clip-rule="evenodd" d="M44.6106 30.201C45.8825 28.517 47.4087 26.9765 49.1892 25.5795C54.0319 21.7426 59.5823 19.8242 65.8405 19.8242C71.3537 19.8242 75.7867 21.3515 79.1393 24.4061C82.4919 27.4234 84.1682 31.4093 84.1682 36.3638C84.1682 37.4068 84.0378 38.7479 83.7771 40.3869C82.6968 46.3099 79.7353 51.1712 74.8926 54.9708C70.0499 58.7705 64.4995 60.6703 58.2413 60.6703C52.7281 60.6703 48.2952 59.1616 44.9425 56.1442C43.0565 54.4258 41.7009 52.4127 40.8759 50.1048C39.5275 51.509 38.1668 52.794 36.8279 53.8572C36.5466 54.0806 36.2795 54.2935 36.0243 54.4969C33.2412 56.7156 31.8695 57.8091 28.8326 59.1057C25.5172 60.5213 22.0342 61.0428 18.3836 61.0428C12.8704 61.0428 8.41884 59.5341 5.02896 56.5167C1.67634 53.4621 3.05176e-05 49.4762 3.05176e-05 44.5591C3.05176e-05 43.516 0.13041 42.175 0.391169 40.5359C1.47146 34.6129 4.43294 29.7516 9.27562 25.952C14.1555 22.1151 19.5384 20.3829 25.7966 20.3829C29.9364 20.3829 33.9614 22.2395 36.3946 24.2384L39.7659 27.1813L41.0697 28.4851L33.9919 36.7735C33.8026 36.5864 33.6171 36.4026 33.4351 36.2222C29.9639 32.7826 27.7511 30.5898 24.1762 30.5898C20.4138 30.5898 18.1601 31.5583 15.5897 33.4954C13.0194 35.3952 11.4362 37.8352 10.8402 40.8153C10.6912 41.4486 10.6167 42.1191 10.6167 42.8269C10.6167 45.211 11.4734 47.1294 13.187 48.5822C14.9006 49.9978 16.8004 50.7055 19.6315 50.7055C22.4626 50.7055 25.0006 50.132 29.7502 46.8725C32.8075 44.7744 35.498 41.3858 38.7026 37.3496C40.467 35.1273 42.3874 32.7086 44.6106 30.201ZM73.6075 38.096C73.6075 35.7119 72.7507 33.812 71.0371 32.3965C69.3235 30.9437 67.0512 30.2173 64.2201 30.2173C60.942 30.2173 58.0178 31.1858 55.4474 33.1229C52.9143 35.0227 51.3498 37.4627 50.7537 40.4428C50.6047 41.0761 50.5302 41.7466 50.5302 42.4544C50.5302 44.8384 51.3684 46.7569 53.0447 48.2097C54.7583 49.6252 57.0306 50.333 59.8617 50.333C63.1398 50.333 66.0641 49.3831 68.6344 47.4833C71.2047 45.5462 72.7879 43.0876 73.3839 40.1075C73.533 39.4743 73.6075 38.8037 73.6075 38.096ZM25.2085 36.9105C25.7607 36.9105 26.2883 36.4629 26.4482 35.9107C26.6082 35.3586 26.2406 34.9109 25.6884 34.9109C25.1362 34.9109 24.6087 35.3586 24.4487 35.9107C24.2887 36.4629 24.6564 36.9105 25.2085 36.9105ZM23.2787 35.9108C23.1187 36.4629 22.5911 36.9105 22.0389 36.9105C21.4868 36.9105 21.1192 36.4629 21.2791 35.9108C21.4391 35.3586 21.9667 34.911 22.5188 34.911C23.071 34.911 23.4386 35.3586 23.2787 35.9108ZM18.1524 38.8223C18.7182 38.8223 19.2588 38.3637 19.4227 37.7979C19.5866 37.2322 19.2099 36.7735 18.6441 36.7735C18.0784 36.7735 17.5378 37.2322 17.3739 37.7979C17.21 38.3637 17.5867 38.8223 18.1524 38.8223ZM27.4581 38.8223C28.0239 38.8223 28.5645 38.3637 28.7284 37.7979C28.8923 37.2322 28.5156 36.7735 27.9498 36.7735C27.384 36.7735 26.8434 37.2322 26.6795 37.7979C26.5156 38.3637 26.8923 38.8223 27.4581 38.8223ZM26.4422 41.3435C27.008 41.3435 27.5486 40.8849 27.7125 40.3191C27.8764 39.7533 27.4997 39.2947 26.934 39.2947C26.3682 39.2947 25.8276 39.7533 25.6637 40.3191C25.4998 40.8849 25.8765 41.3435 26.4422 41.3435ZM26.802 42.8403C26.6381 43.4061 26.0975 43.8647 25.5317 43.8647C24.9659 43.8647 24.5893 43.4061 24.7532 42.8403C24.9171 42.2745 25.4577 41.8159 26.0234 41.8159C26.5892 41.8159 26.9659 42.2745 26.802 42.8403ZM18.4068 40.3191C18.2429 40.8849 17.7023 41.3435 17.1365 41.3435C16.5708 41.3435 16.1941 40.8849 16.358 40.3191C16.5219 39.7533 17.0625 39.2947 17.6282 39.2947C18.194 39.2947 18.5707 39.7533 18.4068 40.3191ZM16.226 43.8647C16.7918 43.8647 17.3324 43.406 17.4963 42.8403C17.6602 42.2745 17.2835 41.8159 16.7178 41.8159C16.152 41.8159 15.6114 42.2745 15.4475 42.8403C15.2836 43.406 15.6603 43.8647 16.226 43.8647ZM21.1299 39.116C21.6821 39.116 22.2097 38.6684 22.3696 38.1162C22.5296 37.5641 22.1619 37.1164 21.6098 37.1164C21.0576 37.1164 20.53 37.5641 20.3701 38.1162C20.2101 38.6684 20.5777 39.116 21.1299 39.116ZM21.4582 40.3217C21.2983 40.8738 20.7707 41.3214 20.2185 41.3214C19.6664 41.3214 19.2987 40.8738 19.4587 40.3217C19.6187 39.7695 20.1463 39.3219 20.6984 39.3219C21.2506 39.3219 21.6182 39.7695 21.4582 40.3217ZM19.3087 43.5269C19.8609 43.5269 20.3885 43.0793 20.5484 42.5271C20.7084 41.975 20.3408 41.5273 19.7886 41.5273C19.2365 41.5273 18.7089 41.975 18.5489 42.5271C18.3889 43.0793 18.7566 43.5269 19.3087 43.5269ZM19.6011 44.7371C19.4411 45.2893 18.9135 45.7369 18.3613 45.7369C17.8092 45.7369 17.4416 45.2893 17.6015 44.7371C17.7615 44.185 18.2891 43.7374 18.8412 43.7374C19.3934 43.7374 19.761 44.185 19.6011 44.7371ZM25.5392 38.1162C25.3792 38.6683 24.8517 39.1159 24.2995 39.1159C23.7473 39.1159 23.3797 38.6683 23.5397 38.1162C23.6996 37.564 24.2272 37.1164 24.7794 37.1164C25.3315 37.1164 25.6992 37.564 25.5392 38.1162ZM23.3881 41.3214C23.9403 41.3214 24.4679 40.8738 24.6278 40.3216C24.7878 39.7695 24.4202 39.3218 23.868 39.3218C23.3158 39.3218 22.7882 39.7695 22.6283 40.3216C22.4683 40.8738 22.8359 41.3214 23.3881 41.3214ZM23.718 42.5271C23.558 43.0792 23.0304 43.5268 22.4783 43.5268C21.9261 43.5268 21.5585 43.0792 21.7184 42.5271C21.8784 41.9749 22.406 41.5273 22.9582 41.5273C23.5103 41.5273 23.878 41.9749 23.718 42.5271ZM21.5309 45.7369C22.0831 45.7369 22.6107 45.2892 22.7706 44.7371C22.9306 44.1849 22.563 43.7373 22.0108 43.7373C21.4587 43.7373 20.9311 44.1849 20.7711 44.7371C20.6111 45.2892 20.9788 45.7369 21.5309 45.7369Z" fill="white"/>
<path fill-rule="evenodd" clip-rule="evenodd" d="M195.253 15.7638L194.727 16.4894C193.719 17.9272 192.677 19.3234 191.604 20.6792H199.941L197.848 24.2583C199.125 22.8646 200.382 21.4268 201.617 19.9437C199.021 19.3549 196.778 17.8395 195.253 15.7638ZM203.73 20.2093C191.093 35.4074 176.544 46.2915 161.144 53.8162C178.001 46.3418 193.16 35.3655 205.564 20.1075C205.065 20.1774 204.555 20.2136 204.037 20.2136C203.934 20.2136 203.832 20.2122 203.73 20.2093ZM142.597 53.8357C108.739 65.5713 70.097 64.7051 44.3606 62.2044C52.2137 63.6875 60.1461 64.8595 68.0874 65.6684C87.6153 67.2343 115.995 67.3489 143.996 58.2423L142.597 53.8357ZM152.241 50.0801L153.845 54.6338C167.33 49.1089 180.47 41.1966 192.21 30.0084H183.092C174.062 38.6213 163.537 45.1622 152.241 50.0801Z" fill="#A8D03E"/>
<path d="M155.383 59.0017L150.188 44.2537L140.3 46.6L144.378 59.4486L144.546 60.0631H155.774L155.383 59.0017Z" fill="white"/>
<path d="M160.464 29.0029L160.296 30.0084H171.693H182.977H194.485L199.941 20.6792H180.929H161.916L161.805 21.3496L160.464 29.0029Z" fill="white"/>
<path fill-rule="evenodd" clip-rule="evenodd" d="M198.783 2.31571C197.557 3.23418 196.636 4.41275 196.041 5.71835C196.903 4.0766 198.422 2.52471 201.16 2.10343C204.264 1.85778 206.195 5.07542 205.522 8.29507C205.206 9.80569 204.09 11.1606 202.671 12.4463C201.296 13.6922 199.885 15.3382 200.224 17.3839C203.117 18.7817 206.677 18.5612 209.416 16.509C210.987 15.3322 212.055 13.726 212.58 11.9744C211.854 10.7589 210.951 9.312 210.873 7.28585C210.83 6.18888 211.006 5.26436 211.457 4.46731C211.478 4.4994 211.499 4.53148 211.521 4.56452C211.417 4.40602 211.309 4.24943 211.195 4.09714C208.266 0.187498 202.69 -0.611939 198.783 2.31571Z" fill="#A8D03E"/>
<path fill-rule="evenodd" clip-rule="evenodd" d="M195.246 8.92045C195.593 6.90481 196.597 3.35815 200.958 2.68662C203.873 2.45572 205.408 5.21144 204.776 8.23604C204.481 9.65213 203.478 10.7727 202.145 11.981C201.647 12.4319 198.926 14.5962 199.566 17.0338C198.596 16.4579 197.721 15.6853 197.004 14.7275C195.702 12.9901 195.134 10.9305 195.246 8.92045Z" fill="#A8D03E"/>
<path fill-rule="evenodd" clip-rule="evenodd" d="M212.789 11.1709C211.891 9.88464 211.492 8.16973 211.469 7.58689C211.433 6.6388 211.401 5.61006 211.726 4.89241C212.879 6.83247 213.212 9.07297 212.789 11.1709Z" fill="#A8D03E"/>
</svg>
